HIERARCHY
ROOT Hips
{
	OFFSET 0.00000 0.00000 0.00000
	CHANNELS 6 Xposition Yposition Zposition Zrotation Yrotation Xrotation 
	JOINT LHipJoint
	{
		OFFSET 0 0 0
		CHANNELS 3 Zrotation Yrotation Xrotation
		JOINT LeftHip
		{
			OFFSET 1.37959 -1.78713 0.86582
			CHANNELS 3 Zrotation Yrotation Xrotation
			JOINT LeftKnee
			{
				OFFSET 2.54611 -6.99539 0.00000
				CHANNELS 3 Zrotation Yrotation Xrotation
				JOINT LeftAnkle
				{
					OFFSET 2.59951 -7.14211 0.00000
					CHANNELS 3 Zrotation Yrotation Xrotation
					JOINT LeftToe
					{
						OFFSET 0.18493 -0.50810 1.96120
						CHANNELS 3 Zrotation Yrotation Xrotation
						End Site
						{
							OFFSET 0.00000 -0.00000 1.02054
						}
					}
				}
			}
		}
	}
	JOINT RHipJoint
	{
		OFFSET 0 0 0
		CHANNELS 3 Zrotation Yrotation Xrotation
		JOINT RightHip
		{
			OFFSET -1.33564 -1.78713 0.86582
			CHANNELS 3 Zrotation Yrotation Xrotation
			JOINT RightKnee
			{
				OFFSET -2.52705 -6.94302 0.00000
				CHANNELS 3 Zrotation Yrotation Xrotation
				JOINT RightAnkle
				{
					OFFSET -2.55964 -7.03257 0.00000
					CHANNELS 3 Zrotation Yrotation Xrotation
					JOINT RightToe
					{
						OFFSET -0.25804 -0.70896 2.12109
						CHANNELS 3 Zrotation Yrotation Xrotation
						End Site
						{
							OFFSET -0.00000 -0.00000 1.11821
						}
					}
				}
			}
		}
	}
	JOINT lowerback
	{
		OFFSET 0 0 0
		CHANNELS 3 Zrotation Yrotation Xrotation
		JOINT Chest
		{
			OFFSET -0.02031 2.24248 -0.18900
			CHANNELS 3 Zrotation Yrotation Xrotation
			JOINT Chest2
			{
				OFFSET 0.08342 2.24689 -0.03799
				CHANNELS 3 Zrotation Yrotation Xrotation
				JOINT lowerneck
				{
					OFFSET 0 0 0
					CHANNELS 3 Zrotation Yrotation Xrotation
					JOINT Neck
					{
						OFFSET -0.11607 1.55844 0.24628
						CHANNELS 3 Zrotation Yrotation Xrotation
						JOINT Head
						{
							OFFSET 0.06877 1.60174 -0.17013
							CHANNELS 3 Zrotation Yrotation Xrotation
							End Site
							{
								OFFSET 0.03358 1.61266 -0.08543
							}
						}
					}
				}
				JOINT LeftCollar
				{
					OFFSET 0 0 0
					CHANNELS 3 Zrotation Yrotation Xrotation
					JOINT LeftShoulder
					{
						OFFSET 3.47537 0.55866 -0.72348
CHANNELS 3 Zrotation Xrotation Yrotation
						JOINT LeftElbow
						{
OFFSET 0 -5.381540 0.000000
CHANNELS 3 Zrotation Xrotation Yrotation
							JOINT LeftWrist
							{
OFFSET 0 -3.333120 0.000000
CHANNELS 3 Zrotation Xrotation Yrotation
								JOINT lhand
								{
									OFFSET 0 0 0
CHANNELS 3 Zrotation Xrotation Yrotation
									JOINT LFingers
									{
OFFSET 0 -0.710790 0.000000
CHANNELS 3 Zrotation Xrotation Yrotation
										End Site
										{
OFFSET 0 -0.573060 0.000000
										}
									}
								}
								JOINT LThumb
								{
OFFSET 0 0.000000 0.000000
CHANNELS 3 Zrotation Xrotation Yrotation
									End Site
									{
OFFSET 0 -0.581810 0.581810
									}
								}
							}
						}
					}
				}
				JOINT RightCollar
				{
					OFFSET 0 0 0
					CHANNELS 3 Zrotation Yrotation Xrotation
					JOINT RightShoulder
					{
						OFFSET -3.27844 0.90739 -0.35708
CHANNELS 3 Zrotation Xrotation Yrotation
						JOINT RightElbow
						{
OFFSET 0 -5.169540 0.000000
CHANNELS 3 Zrotation Xrotation Yrotation
							JOINT RightWrist
							{
OFFSET 0 -3.382870 0.000000
CHANNELS 3 Zrotation Xrotation Yrotation
								JOINT rhand
								{
									OFFSET 0 0 0
CHANNELS 3 Zrotation Xrotation Yrotation
									JOINT RFingers
									{
OFFSET 0 -0.817970 0.000000
CHANNELS 3 Zrotation Xrotation Yrotation
										End Site
										{
OFFSET 0 -0.659470 0.000000
										}
									}
								}
								JOINT RThumb
								{
OFFSET 0 0.000000 0.000000
CHANNELS 3 Zrotation Xrotation Yrotation
									End Site
									{
OFFSET 0 -0.669530 0.669530
									}
								}
							}
						}
					}
				}
			}
		}
	}
}
MOTION
Frames: 11
Frame Time: 0.008333333333333333
6.529400 17.632900 -15.989700 -0.941700 -0.138000 1.783200 0.000000 0.000000 0.000000 -10.128100 -2.619100 -7.070400 1.337400 7.322500 20.674300 0.355500 -3.641400 -10.602700 1.094000 -6.646700 -18.672700 0.000000 0.000000 0.000000 23.359200 -0.774300 -6.740300 -1.035000 -6.470800 18.156700 -0.368800 -7.022800 -16.150900 -0.083500 -1.863700 5.129100 -0.119500 -2.103500 1.164700 3.063800 -2.803200 0.513200 3.239500 -1.408900 0.033100 -17.041600 -12.853100 -2.955800 11.103500 -17.411600 9.168400 4.782400 -8.665400 5.713500 0.000000 -0.000000 0.000000 31.336300 -21.143500 -15.489600 114.977000 -57.506300 81.449600 1.508200 17.103500 -37.213800 0.000000 0.000000 0.000000 -7.125000 0.000000 0.000000 -39.691400 62.736900 18.604100 0.000000 -0.000000 0.000000 -33.363200 -30.740200 25.753000 -117.310900 -56.984900 -83.412500 -22.572900 -1.707400 -28.271700 0.000000 0.000000 0.000000 7.125000 0.000000 -0.000000 4.642200 -0.150200 4.669700
6.608997 17.626687 -15.992225 -1.495524 -0.271757 1.650109 0.000000 0.000000 0.000000 -9.772542 -2.163007 -7.090743 1.358023 7.376563 20.835770 0.411077 -4.163246 -11.402156 0.492756 -4.498308 -12.483491 0.000000 0.000000 0.000000 23.725049 -0.428193 -6.405545 -1.033660 -6.466354 18.143856 -0.356171 -7.302376 -16.249138 -0.062899 -1.617791 4.450414 0.027691 -2.183075 1.844609 3.474124 -2.877415 -0.052399 3.626332 -1.434273 -0.909647 -17.616021 -11.975424 -3.311009 10.979055 -16.282728 11.482009 4.911856 -8.148368 6.377411 0.000000 0.000000 0.000000 31.014481 -21.175722 -15.687641 114.167187 -57.673736 80.765941 2.248271 17.759014 -37.058383 0.000000 0.000000 0.000000 -7.125000 0.000000 0.000000 -38.773871 62.810758 18.170573 0.000000 0.000000 0.000000 -33.688189 -30.216055 26.222731 -117.296285 -56.988330 -83.400263 -23.303140 -2.405121 -28.588396 0.000000 0.000000 0.000000 7.125000 0.000000 0.000000 4.257402 -0.629366 4.314644
6.705021 17.603549 -15.984775 -0.544971 -0.528863 1.477806 0.000000 0.000000 0.000000 -11.539593 -1.049211 -6.630325 1.252318 7.094606 19.995907 0.465552 -2.921882 -12.218529 1.063482 -6.554582 -18.402940 0.000000 0.000000 0.000000 22.234680 -0.668293 -6.940893 -1.160633 -6.839397 19.240415 -0.447657 -6.460801 -16.641768 -0.074653 -1.762517 4.849819 -0.783069 -2.070642 1.047215 3.058119 -2.766802 0.446335 3.603009 -1.392133 0.059670 -16.646684 -11.494677 -4.354527 9.970915 -15.469449 12.688994 4.484619 -7.742874 6.657432 0.000000 0.000000 0.000000 31.190835 -22.967751 -15.784318 113.054204 -57.893277 79.824280 2.950292 18.460134 -37.225627 0.000000 0.000000 0.000000 -7.125000 0.000000 0.000000 -38.293684 63.124764 18.190094 0.000000 0.000000 0.000000 -33.883077 -31.000522 25.550736 -116.814966 -57.100630 -82.996407 -25.914121 -4.535228 -29.855513 0.000000 0.000000 0.000000 7.125000 0.000000 0.000000 2.934110 -2.528854 3.062364
6.794297 17.601595 -15.984943 -0.496177 -0.629479 1.256644 0.000000 0.000000 0.000000 -12.173666 -0.432576 -6.325377 1.202655 6.957789 19.590280 0.494951 -2.021167 -12.745902 0.733050 -5.456837 -15.219545 0.000000 0.000000 0.000000 21.806079 -0.986275 -7.012439 -1.205224 -6.964879 19.611376 -0.472949 -6.059238 -16.615825 -0.056943 -1.534074 4.219774 -0.682452 -2.079220 1.404692 2.945779 -2.771427 0.342577 3.448122 -1.389528 -0.257065 -16.662023 -10.614118 -5.163530 10.052860 -14.232959 13.949767 4.620922 -7.129072 7.036438 0.000000 0.000000 0.000000 31.751774 -23.276327 -15.940758 113.037554 -57.896431 79.810197 2.802811 18.249399 -37.181455 0.000000 0.000000 0.000000 -7.125000 0.000000 0.000000 -38.383354 63.051554 18.173932 0.000000 0.000000 0.000000 -33.944189 -31.041116 25.348669 -116.670224 -57.133854 -82.874797 -23.807415 -2.945412 -28.628749 0.000000 0.000000 0.000000 7.125000 0.000000 0.000000 3.967175 -0.776758 4.030225
6.885490 17.596546 -15.981326 -0.605092 -0.688255 1.154439 0.000000 0.000000 0.000000 -12.563809 -0.385631 -6.104937 1.193220 6.931386 19.512208 0.549396 -1.290722 -13.616754 0.958861 -6.228564 -17.451171 0.000000 0.000000 0.000000 21.567864 -1.147938 -6.991760 -1.217258 -6.998448 19.710767 -0.494300 -5.828159 -16.688531 -0.055199 -1.516238 4.170443 -0.689368 -1.994681 0.674741 3.047190 -2.676274 0.805544 3.515569 -1.355987 0.625658 -15.145620 -9.906503 -5.065622 8.997042 -13.166309 12.626022 4.208039 -6.601458 6.268106 0.000000 0.000000 0.000000 32.151129 -24.693141 -15.576320 113.387490 -57.828782 80.106552 0.083387 14.933041 -35.402320 0.000000 0.000000 0.000000 -7.125000 0.000000 0.000000 -38.909773 60.978881 16.557645 0.000000 0.000000 0.000000 -34.858402 -31.737154 24.402247 -116.547208 -57.161942 -82.771503 -23.141373 -2.735225 -28.781832 0.000000 0.000000 0.000000 7.125000 0.000000 0.000000 4.377805 -0.795156 4.451159
6.971437 17.590593 -15.983544 -0.391069 -0.763043 1.363059 0.000000 0.000000 0.000000 -13.143667 -0.826106 -6.094201 1.156087 6.826568 19.202467 0.549995 -0.818670 -13.752118 0.959151 -6.234571 -17.467033 0.000000 0.000000 0.000000 21.027588 -0.690142 -7.354293 -1.272528 -7.149637 20.159536 -0.491546 -6.077766 -16.855355 -0.036171 -1.226623 3.372427 -0.964551 -1.875861 0.699675 3.052421 -2.514651 0.624920 3.681332 -1.272612 0.427981 -14.975796 -9.086033 -5.449773 9.187115 -11.973488 11.747511 4.370833 -5.988005 5.907464 0.000000 0.000000 0.000000 32.114599 -24.837149 -15.947720 113.643920 -57.778481 80.323538 0.582192 14.876154 -34.902405 0.000000 0.000000 0.000000 -7.125000 0.000000 0.000000 -37.868318 60.708943 15.791670 0.000000 0.000000 0.000000 -35.460763 -31.357134 23.863398 -117.173966 -57.016967 -83.297674 -23.271769 -3.469319 -29.679063 0.000000 0.000000 0.000000 7.125000 0.000000 0.000000 4.429280 -1.750662 4.575625
7.059558 17.588989 -15.999593 -0.469313 -0.694813 1.343774 0.000000 0.000000 0.000000 -13.306892 -1.367818 -5.764535 1.133523 6.761881 19.011807 0.545478 -0.848689 -13.686282 0.909710 -6.077588 -17.009819 0.000000 0.000000 0.000000 20.753154 -1.020061 -7.685457 -1.303642 -7.233261 20.408245 -0.507566 -5.737132 -16.776668 -0.046740 -1.395156 3.836785 -0.919717 -1.894297 0.968628 3.115008 -2.536335 0.581525 3.731848 -1.280725 0.235285 -14.359672 -8.317047 -6.453719 9.134437 -10.805146 11.227556 4.351934 -5.364990 5.729292 0.000000 0.000000 0.000000 32.567326 -24.837881 -16.280196 114.064511 -57.694563 80.679139 1.025919 15.612257 -35.967995 0.000000 0.000000 0.000000 -7.125000 0.000000 0.000000 -38.648581 61.652259 17.047625 0.000000 0.000000 0.000000 -35.882049 -31.344678 23.708570 -117.506075 -56.938688 -83.576092 -24.627276 -4.124934 -29.992521 0.000000 0.000000 0.000000 7.125000 0.000000 0.000000 3.694223 -2.373069 3.851785
7.138684 17.595271 -16.014084 -0.363461 -0.927533 1.342152 0.000000 0.000000 0.000000 -13.652487 -1.043956 -5.974363 1.144393 6.793142 19.104088 0.549727 -1.298181 -13.618000 0.931468 -6.148110 -17.214863 0.000000 0.000000 0.000000 20.347353 -1.149981 -7.838415 -1.311289 -7.253604 20.468911 -0.500969 -5.517537 -16.526497 -0.037567 -1.250661 3.438710 -0.648556 -1.642996 1.116253 2.715972 -2.199015 0.719000 3.167999 -1.110571 0.242799 -13.414736 -7.705178 -7.761265 9.151946 -9.850853 10.283406 4.267989 -4.820131 5.492788 0.000000 0.000000 0.000000 33.183262 -25.476420 -17.151307 113.826983 -57.742234 80.478388 2.323254 17.059818 -37.195390 0.000000 0.000000 0.000000 -7.125000 0.000000 0.000000 -38.872533 62.936314 18.337814 0.000000 0.000000 0.000000 -35.513237 -31.002171 23.001793 -117.858587 -56.854092 -83.871432 -26.032658 -5.354811 -31.347827 0.000000 0.000000 0.000000 7.125000 0.000000 0.000000 3.116091 -4.110907 3.335052
7.200225 17.601002 -16.025453 -0.358190 -1.070231 1.607574 0.000000 0.000000 0.000000 -13.797483 -0.289197 -6.790003 1.175664 6.882038 19.366314 0.536493 -2.043932 -13.286539 0.844760 -5.861763 -16.384104 0.000000 0.000000 0.000000 20.156837 -0.666645 -8.009170 -1.304992 -7.236680 20.418489 -0.486396 -5.813086 -16.581189 -0.020096 -0.913801 2.511578 -1.139209 -1.518386 0.981944 2.985594 -2.035783 0.577865 3.720763 -1.029692 0.190853 -14.078494 -7.432654 -8.867575 9.563251 -9.288106 10.176782 4.528078 -4.515861 5.633280 0.000000 0.000000 0.000000 32.945019 -25.671745 -17.735347 113.152081 -57.874413 79.907241 1.955189 17.238403 -36.923557 0.000000 0.000000 0.000000 -7.125000 0.000000 0.000000 -38.896084 62.629386 18.074558 0.000000 0.000000 0.000000 -35.971173 -30.412663 22.715625 -118.117682 -56.790992 -84.088277 -27.947700 -6.554517 -31.818771 0.000000 0.000000 0.000000 7.125000 0.000000 0.000000 2.122946 -5.082996 2.304219
7.288771 17.607565 -16.030277 -0.400797 -1.273850 1.729478 0.000000 0.000000 0.000000 -14.043013 -0.237986 -7.040118 1.201715 6.955194 19.582815 0.565004 -2.098948 -13.634358 0.959765 -6.237839 -17.476027 0.000000 0.000000 0.000000 19.853979 -0.854519 -8.095162 -1.263514 -7.125084 20.086546 -0.471084 -5.525798 -16.166768 -0.033527 -1.181339 3.247873 -0.923328 -1.399785 0.741487 2.917389 -1.878753 0.665726 3.519577 -0.953195 0.394926 -13.782310 -7.017856 -10.142759 9.147940 -8.536055 10.207566 4.389565 -4.129959 5.734566 0.000000 0.000000 0.000000 33.215099 -26.143332 -18.048260 112.914348 -57.919905 79.705806 1.243440 17.040594 -37.741569 0.000000 0.000000 0.000000 -7.125000 0.000000 0.000000 -40.623604 63.068160 19.432062 0.000000 0.000000 0.000000 -35.742874 -30.228831 22.477219 -118.398514 -56.721754 -84.323152 -26.294588 -5.472615 -31.179680 0.000000 0.000000 0.000000 7.125000 0.000000 0.000000 2.937998 -3.998957 3.139619
7.363672 17.621194 -16.024420 -0.094656 -1.319391 1.869970 0.000000 0.000000 0.000000 -14.719269 -0.558077 -6.978597 1.188997 6.919503 19.477122 0.565869 -1.640184 -13.740658 1.041490 -6.490345 -18.214094 0.000000 0.000000 0.000000 19.205371 -1.302147 -8.156655 -1.203885 -6.961185 19.600445 -0.452649 -5.231831 -15.706421 -0.020094 -0.913069 2.509639 -1.147288 -1.287406 0.639486 2.701816 -1.726359 0.475114 3.423227 -0.873068 0.245939 -13.716111 -6.578654 -10.783480 9.408656 -7.891459 10.124059 4.516715 -3.780321 5.748235 0.000000 0.000000 0.000000 33.485966 -26.461780 -18.506824 112.080285 -58.075036 78.998508 1.073058 17.122466 -37.768128 0.000000 0.000000 0.000000 -7.125000 0.000000 0.000000 -40.822941 63.043012 19.520249 0.000000 0.000000 0.000000 -35.412231 -29.738366 22.397484 -118.216334 -56.766801 -84.170847 -24.429674 -3.685705 -29.741354 0.000000 0.000000 0.000000 7.125000 0.000000 0.000000 3.770247 -2.068639 3.911253
